<svg xmlns="http://www.w3.org/2000/svg" width="28" height="22" viewBox="0 0 28 22">
  <g fill="#6697F7" fill-rule="evenodd">
    <path d="M7.99999964,20.9999989 L19.9999989,20.9999989 L13.9999993,14.9999992 L7.99999964,20.9999989 Z M24.9999987,1 L2.99999982,1 C1.89999986,1 0.99999994,1.90000004 0.99999994,2.99999988 L0.99999994,15.9999992 C0.99999994,17.0999994 1.89999998,17.999999 2.99999982,17.999999 L8.99999958,17.999999 L8.99999958,15.9999992 L2.99999982,15.9999992 L2.99999982,2.99999988 L24.9999987,2.99999988 L24.9999987,15.9999992 L18.999999,15.9999992 L18.999999,17.999999 L24.9999987,17.999999 C26.099999,17.999999 26.9999986,17.0999994 26.9999986,15.9999992 L26.9999986,2.99999988 C26.9999986,1.90000004 26.099999,1 24.9999987,1 Z"/>
    <rect width="18" height="9" x="5" y="5" rx="1"/>
  </g>
</svg>
