<svg xmlns="http://www.w3.org/2000/svg" width="22" height="22" viewBox="0 0 22 22">
  <path fill="#4786FF" fill-rule="evenodd" d="M10.9999993,4.9999997 L10.9999993,0.99999994 L5.99999958,5.99999964 L10.9999993,10.9999993 L10.9999993,6.99999958 C14.2999992,6.99999958 16.9999989,9.69999922 16.9999989,12.9999992 C16.9999989,16.2999982 14.2999992,18.9999989 10.9999993,18.9999989 C7.69999928,18.9999989 4.99999964,16.2999982 4.99999964,12.9999992 L2.99999976,12.9999992 C2.99999976,17.3999986 6.59999944,20.9999987 10.9999993,20.9999987 C15.3999986,20.9999987 18.9999988,17.3999986 18.9999988,12.9999992 C18.9999988,8.59999986 15.3999986,4.9999997 10.9999993,4.9999997 Z M9.89999895,15.999999 L8.9999994,15.999999 L8.9999994,12.699999 L7.99999946,12.9999992 L7.99999946,12.2999994 L9.79999945,11.6999991 L9.89999985,11.6999991 L9.89999985,15.999999 L9.89999895,15.999999 Z M14.1999989,14.1999989 C14.1999989,14.4999991 14.1999989,14.7999992 14.0999985,14.9999991 L13.7999983,15.5999994 C13.7999983,15.5999994 13.4999981,15.8999995 13.2999983,15.8999995 C13.0999986,15.8999995 12.8999988,15.999999 12.699998,15.999999 C12.4999972,15.999999 12.2999984,15.999999 12.0999976,15.8999986 C11.8999969,15.7999983 11.7999974,15.6999989 11.5999976,15.5999985 C11.3999979,15.4999981 11.3999979,15.2999983 11.2999975,14.9999981 C11.1999972,14.6999979 11.1999972,14.4999981 11.1999972,14.1999979 L11.1999972,13.4999982 C11.1999972,13.199998 11.1999972,12.8999978 11.2999975,12.699998 L11.5999976,12.0999977 C11.5999976,12.0999977 11.8999978,11.7999975 12.0999976,11.7999975 C12.2999974,11.7999975 12.4999972,11.6999972 12.699998,11.6999972 C12.8999988,11.6999972 13.0999976,11.6999972 13.2999983,11.7999975 C13.4999981,11.8999979 13.5999985,11.9999973 13.7999983,12.0999977 C13.9999981,12.1999981 13.9999981,12.3999979 14.0999985,12.699998 C14.1999989,12.9999982 14.1999989,13.199998 14.1999989,13.4999982 L14.1999989,14.1999979 L14.1999989,14.1999989 Z M13.2999992,13.3999988 L13.2999992,12.8999988 C13.2999992,12.8999988 13.1999989,12.699999 13.1999989,12.5999986 C13.1999989,12.4999983 13.0999986,12.4999983 12.9999992,12.3999989 C12.8999997,12.2999994 12.7999993,12.2999985 12.699999,12.2999985 C12.5999986,12.2999985 12.4999992,12.2999985 12.3999988,12.3999989 L12.199999,12.5999986 C12.199999,12.5999986 12.0999986,12.7999984 12.0999986,12.8999988 L12.0999986,14.8999987 C12.0999986,14.8999987 12.199999,15.0999985 12.199999,15.1999989 C12.199999,15.2999992 12.2999993,15.2999992 12.3999988,15.3999987 C12.4999982,15.4999981 12.5999986,15.4999991 12.699999,15.4999991 C12.7999993,15.4999991 12.8999988,15.4999991 12.9999992,15.3999987 L13.1999989,15.1999989 C13.1999989,15.1999989 13.2999992,14.9999991 13.2999992,14.8999987 L13.2999992,13.3999988 Z"/>
</svg>
