<svg xmlns="http://www.w3.org/2000/svg" width="28" height="22" viewBox="0 0 28 22">
  <g fill="#6697F7" fill-rule="evenodd">
    <path d="M1.49999993,17.6666655 L1.49999993,20.9999986 L4.90909064,20.9999986 C4.90909064,19.1555544 3.38636327,17.6666655 1.49999993,17.6666655 Z M1.49999993,13.2222213 L1.49999993,15.4444434 C4.63636337,15.4444434 7.18181777,17.9333318 7.18181777,20.9999986 L9.45454491,20.9999986 C9.45454491,16.7 5.8977268,13.2222213 1.49999993,13.2222213 Z M1.49999993,8.77777711 L1.49999993,10.9999992 C7.14772716,10.9999992 11.727272,15.4777774 11.727272,20.9999986 L13.9999992,20.9999986 C13.9999992,14.2444434 8.39772644,8.77777711 1.49999993,8.77777711 Z M24.2272713,0.9999998 L3.77272707,0.9999998 C2.52272711,0.9999998 1.49999993,1.99999984 1.49999993,3.22222189 L1.49999993,6.55555502 L3.77272707,6.55555502 L3.77272707,3.22222189 L24.2272713,3.22222189 L24.2272713,18.7777765 L16.2727263,18.7777765 L16.2727263,20.9999986 L24.2272713,20.9999986 C25.4772716,20.9999986 26.4999984,19.999999 26.4999984,18.7777765 L26.4999984,3.22222189 C26.4999984,1.99999984 25.4772716,0.9999998 24.2272713,0.9999998 Z"/>
    <path d="M21.9545442,5.44444398 L6.0454542,5.44444398 L6.0454542,7.2555551 C10.545454,8.67777694 14.102272,12.1555546 15.556817,16.5555544 L21.9545442,16.5555544 L21.9545442,5.44444398 Z"/>
  </g>
</svg>
