<svg xmlns="http://www.w3.org/2000/svg" width="28" height="22" viewBox="0 0 28 22">
  <path fill="#FFFFFF" fill-rule="evenodd" d="M24.2272727,1 L3.77272727,1 C2.52272724,1 1.5,2.0000001 1.5,3.22222222 L1.5,6.55555556 L3.77272727,6.55555556 L3.77272727,3.22222222 L24.2272727,3.22222222 L24.2272727,18.7777778 L16.2727273,18.7777778 L16.2727273,21 L24.2272727,21 C25.4772731,21 26.5,20.0000003 26.5,18.7777778 L26.5,3.22222222 C26.5,2.0000001 25.4772731,1 24.2272727,1 Z M1.5,17.6666667 L1.5,21 L4.90909091,21 C4.90909091,19.1555557 3.38636345,17.6666667 1.5,17.6666667 Z M1.5,13.2222222 L1.5,15.4444444 C4.63636363,15.4444444 7.18181818,17.933333 7.18181818,21 L9.45454545,21 C9.45454545,16.7000011 5.89772714,13.2222222 1.5,13.2222222 Z M1.5,8.77777778 L1.5,11 C7.14772757,11 11.7272727,15.4777784 11.7272727,21 L14,21 C14,14.2444444 8.39772692,8.77777778 1.5,8.77777778 Z"/>
</svg>
