<svg xmlns="http://www.w3.org/2000/svg" width="22" height="22" viewBox="0 0 22 22">
  <path fill="#FFFFFF" fill-rule="evenodd" d="M11,8.74250959 L3.47503198,1.21754157 C2.85164322,0.594152809 1.84093033,0.594152809 1.21754157,1.21754157 C0.594152809,1.84093033 0.594152809,2.85164322 1.21754157,3.47503198 L1.21754157,3.47503198 L8.74250959,11 L1.21754157,18.524968 C0.594152809,19.1483568 0.594152809,20.1590697 1.21754157,20.7824584 L1.21754157,20.7824584 C1.84093033,21.4058472 2.85164322,21.4058472 3.47503198,20.7824584 L11,13.2574904 L18.524968,20.7824584 C19.1483568,21.4058472 20.1590697,21.4058472 20.7824584,20.7824584 L20.7824584,20.7824584 C21.4058472,20.1590697 21.4058472,19.1483568 20.7824584,18.524968 L13.2574904,11 L20.7824584,3.47503198 C21.4058472,2.85164322 21.4058472,1.84093033 20.7824584,1.21754157 C20.1590697,0.594152809 19.1483568,0.594152809 18.524968,1.21754157 L11,8.74250959 Z"/>
</svg>
