<svg xmlns="http://www.w3.org/2000/svg" width="9" height="9" viewBox="0 0 9 9">
  <g fill="none" fill-rule="evenodd">
    <path fill="#4786FF" d="M4.5,7.5 C6.15685425,7.5 7.5,6.15685425 7.5,4.5 C7.5,2.84314575 6.15685425,1.5 4.5,1.5 C2.84314575,1.5 1.5,2.84314575 1.5,4.5 C1.5,6.15685425 2.84314575,7.5 4.5,7.5 Z"/>
    <path fill="#FFFFFF" fill-rule="nonzero" d="M4.5,7.5 C6.15685425,7.5 7.5,6.15685425 7.5,4.5 C7.5,2.84314575 6.15685425,1.5 4.5,1.5 C2.84314575,1.5 1.5,2.84314575 1.5,4.5 C1.5,6.15685425 2.84314575,7.5 4.5,7.5 Z M4.5,9 C2.01471863,9 0,6.98528137 0,4.5 C0,2.01471863 2.01471863,0 4.5,0 C6.98528137,0 9,2.01471863 9,4.5 C9,6.98528137 6.98528137,9 4.5,9 Z"/>
  </g>
</svg>
