<svg xmlns="http://www.w3.org/2000/svg" width="17" height="17" viewBox="0 0 17 17">
  <g fill="none" fill-rule="evenodd">
    <path fill="#4786FF" d="M8.5,14.5 C11.8137085,14.5 14.5,11.8137085 14.5,8.5 C14.5,5.1862915 11.8137085,2.5 8.5,2.5 C5.1862915,2.5 2.5,5.1862915 2.5,8.5 C2.5,11.8137085 5.1862915,14.5 8.5,14.5 Z"/>
    <path fill="#FFFFFF" fill-rule="nonzero" d="M8.5,14.5 C11.8137085,14.5 14.5,11.8137085 14.5,8.5 C14.5,5.1862915 11.8137085,2.5 8.5,2.5 C5.1862915,2.5 2.5,5.1862915 2.5,8.5 C2.5,11.8137085 5.1862915,14.5 8.5,14.5 Z M8.5,17 C3.80557963,17 0,13.1944204 0,8.5 C0,3.80557963 3.80557963,0 8.5,0 C13.1944204,0 17,3.80557963 17,8.5 C17,13.1944204 13.1944204,17 8.5,17 Z"/>
  </g>
</svg>
