<svg xmlns="http://www.w3.org/2000/svg" width="22" height="22" viewBox="0 0 22 22">
  <path fill="#4786FF" fill-rule="evenodd" d="M8.5999998,13.4999992 L8.9999994,13.4999992 C9.19999919,13.4999992 9.39999898,13.3999988 9.49999937,13.2999993 C9.59999966,13.1999999 9.69999916,13.0999995 9.69999916,12.8999997 L9.69999916,12.6999999 C9.69999916,12.6999999 9.59999876,12.5999995 9.59999876,12.5000001 C9.59999876,12.4000008 9.49999837,12.3999998 9.39999898,12.3999998 L8.89999902,12.3999998 C8.89999902,12.3999998 8.79999864,12.5000001 8.69999922,12.5000001 C8.5999998,12.5000001 8.59999884,12.6000005 8.59999884,12.6999999 L8.59999884,12.8999997 L7.5999989,12.8999997 C7.5999989,12.6999999 7.5999989,12.5999995 7.69999928,12.3999998 C7.79999966,12.2 7.89999908,12.0999996 7.99999946,12.0000002 C8.09999983,11.9000008 8.29999963,11.8000004 8.39999905,11.8000004 C8.49999847,11.8000004 8.79999864,11.7 8.89999902,11.7 C9.09999879,11.7 9.29999858,11.7 9.49999937,11.8000004 C9.70000006,11.9000008 9.79999945,11.9000008 9.99999934,12.0000002 C10.1999991,12.0999996 10.1999991,12.2 10.2999994,12.3999998 C10.3999998,12.5999995 10.3999998,12.6999999 10.3999998,12.8999997 L10.3999998,13.1999999 C10.3999998,13.1999999 10.2999994,13.3999997 10.2999994,13.5000001 C10.2999994,13.6000005 10.1999991,13.6999999 10.0999996,13.6999999 C10.0000002,13.6999999 9.89999985,13.8000003 9.79999945,13.8999997 C9.99999934,14.0000001 10.1999991,14.0999995 10.2999994,14.2999992 C10.3999998,14.4999991 10.4999993,14.6999989 10.4999993,14.8999996 C10.4999993,15.0999994 10.4999993,15.2999992 10.3999989,15.3999996 C10.2999985,15.5 10.1999991,15.6999998 10.0999987,15.7999992 C9.99999834,15.8999986 9.79999855,15.999999 9.59999876,15.999999 C9.39999898,15.999999 9.19999919,16.0999993 8.99999844,16.0999993 C8.79999864,16.0999993 8.59999884,16.0999993 8.49999847,15.999999 C8.3999981,15.8999986 8.1999983,15.8999986 7.9999985,15.7999992 C7.7999987,15.6999998 7.7999987,15.5999994 7.69999833,15.3999996 C7.59999795,15.1999998 7.59999795,15 7.59999795,14.7999992 L8.3999981,14.7999992 L8.3999981,14.9999991 C8.3999981,14.9999991 8.49999847,15.0999994 8.49999847,15.1999989 C8.49999847,15.2999983 8.59999884,15.2999992 8.69999827,15.2999992 L9.19999819,15.2999992 C9.19999819,15.2999992 9.29999858,15.1999989 9.39999798,15.1999989 C9.49999737,15.1999989 9.49999837,15.0999985 9.49999837,14.9999991 L9.49999837,14.4999991 C9.49999837,14.4999991 9.39999798,14.3999987 9.39999798,14.2999992 C9.39999798,14.1999998 9.29999758,14.1999989 9.19999819,14.1999989 L8.59999789,14.1999989 L8.59999789,13.4999992 L8.5999998,13.4999992 Z M14.2999992,14.1999989 C14.2999992,14.4999991 14.2999992,14.7999992 14.1999989,14.9999991 L13.8999987,15.5999994 C13.8999987,15.5999994 13.5999985,15.8999995 13.3999987,15.8999995 C13.1999989,15.8999995 12.9999992,15.999999 12.7999984,15.999999 C12.5999976,15.999999 12.3999988,15.999999 12.199998,15.8999986 C11.9999972,15.7999983 11.8999978,15.6999989 11.699998,15.5999985 C11.4999983,15.4999981 11.4999983,15.2999983 11.3999979,14.9999981 C11.2999975,14.6999979 11.2999975,14.4999981 11.2999975,14.1999979 L11.2999975,13.4999982 C11.2999975,13.199998 11.2999975,12.8999978 11.3999979,12.699998 L11.699998,12.0999977 C11.699998,12.0999977 11.9999982,11.7999975 12.199998,11.7999975 C12.3999978,11.7999975 12.5999976,11.6999972 12.7999984,11.6999972 C12.9999992,11.6999972 13.1999979,11.6999972 13.3999987,11.7999975 C13.5999994,11.8999979 13.6999989,11.9999973 13.8999987,12.0999977 C14.0999985,12.1999981 14.0999985,12.3999979 14.1999989,12.699998 C14.2999992,12.9999982 14.2999992,13.199998 14.2999992,13.4999982 L14.2999992,14.1999979 L14.2999992,14.1999989 Z M13.3999996,13.3999988 L13.3999996,12.8999988 C13.3999996,12.8999988 13.2999992,12.699999 13.2999992,12.5999986 C13.2999992,12.4999983 13.1999989,12.4999983 13.0999995,12.3999989 C13.0000001,12.2999994 12.8999997,12.2999985 12.7999993,12.2999985 C12.699999,12.2999985 12.5999995,12.2999985 12.4999992,12.3999989 L12.2999993,12.5999986 C12.2999993,12.5999986 12.199999,12.7999984 12.199999,12.8999988 L12.199999,14.8999987 C12.199999,14.8999987 12.2999993,15.0999985 12.2999993,15.1999989 C12.2999993,15.2999992 12.3999997,15.2999992 12.4999992,15.3999987 C12.5999986,15.4999981 12.699999,15.4999991 12.7999993,15.4999991 C12.8999997,15.4999991 12.9999992,15.4999991 13.0999995,15.3999987 L13.2999992,15.1999989 C13.2999992,15.1999989 13.3999996,14.9999991 13.3999996,14.8999987 L13.3999996,13.3999988 Z M2.99999976,12.9999992 C2.99999976,17.3999986 6.59999944,20.9999987 10.9999993,20.9999987 C15.3999986,20.9999987 18.9999988,17.3999986 18.9999988,12.9999992 L16.9999989,12.9999992 C16.9999989,16.2999982 14.2999992,18.9999989 10.9999993,18.9999989 C7.69999928,18.9999989 4.99999964,16.2999982 4.99999964,12.9999992 C4.99999964,9.70000018 7.69999928,6.99999958 10.9999993,6.99999958 L10.9999993,10.9999993 L15.999999,5.99999964 L10.9999993,0.99999994 L10.9999993,4.9999997 C6.59999944,4.9999997 2.99999976,8.59999986 2.99999976,12.9999992 Z"/>
</svg>
