<svg xmlns="http://www.w3.org/2000/svg" width="28" height="22" viewBox="0 0 28 22">
  <path fill="#FFFFFF" d="M26,7 L28,7 L28,2 C28,0.8954305 27.1045695,0 26,0 L21,0 L21,1.875 L25,1.875 C25.5522847,1.875 26,2.32271525 26,2.875 L26,7 Z M2,7 L0,7 L0,2 C0,0.8954305 0.8954305,0 2,0 L7,0 L7,1.875 L3,1.875 C2.44771525,1.875 2,2.32271525 2,2.875 L2,7 Z M26,15 L28,15 L28,20 C28,21.1045695 27.1045695,22 26,22 L21,22 L21,20 L25,20 C25.5522847,20 26,19.5522847 26,19 L26,15 Z M2,15 L0,15 L0,20 C0,21.1045695 0.8954305,22 2,22 L7,22 L7,20 L3,20 C2.44771525,20 2,19.5522847 2,19 L2,15 Z"/>
</svg>
