<svg xmlns="http://www.w3.org/2000/svg" width="22" height="22" viewBox="0 0 22 22">
  <path fill="#699CFF" d="M20,7 L22,7 L22,2 C22,0.8954305 21.1045695,0 20,0 L15,0 L15,1.875 L19,1.875 C19.5522847,1.875 20,2.32271525 20,2.875 L20,7 Z M2,7 L0,7 L0,2 C0,0.8954305 0.8954305,0 2,0 L7,0 L7,1.875 L3,1.875 C2.44771525,1.875 2,2.32271525 2,2.875 L2,7 Z M20,15 L22,15 L22,20 C22,21.1045695 21.1045695,22 20,22 L15,22 L15,20 L19,20 C19.5522847,20 20,19.5522847 20,19 L20,15 Z M2,15 L2,19 C2,19.5522847 2.44771525,20 3,20 L7,20 L7,22 L2,22 C0.8954305,22 0,21.1045695 0,20 L0,15 L2,15 Z M5,4 L17,4 C17.5522847,4 18,4.44771525 18,5 L18,17 L18,17 C18,17.5522847 17.5522847,18 17,18 L5,18 C4.44771525,18 4,17.5522847 4,17 L4,5 C4,4.44771525 4.44771525,4 5,4 Z"/>
</svg>
