<svg xmlns="http://www.w3.org/2000/svg" width="32" height="22" viewBox="0 0 32 22">
  <g fill="#FFFFFF" fill-rule="evenodd">
    <path d="M6.98706055,1.875 L3,1.875 C2.44771525,1.875 2,2.32271525 2,2.875 L2,15 L0,15 L0,2 C0,0.8954305 0.8954305,0 2,0 L6.98706055,0 L30,0 C31.1045695,0 32,0.8954305 32,2 L32,15 L30,15 L30,2.875 C30,2.32271525 29.5522847,1.875 29,1.875 L6.98706055,1.875 Z M30,15 L32,15 L32,20 C32,21.1045695 31.1045695,22 30,22 L18.5218506,22 L18.5218506,20 L29,20 C29.5522847,20 30,19.5522847 30,19 L30,15 Z M2,15 L2,19 C2,19.5522847 2.44771525,20 3,20 L13.538208,20 L13.538208,22 L2,22 C0.8954305,22 0,21.1045695 0,20 L0,15 L2,15 Z"/>
    <path fill-rule="nonzero" d="M22.5 15C20.0147186 15 18 12.9852814 18 10.5 18 8.01471863 20.0147186 6 22.5 6 24.9852814 6 27 8.01471863 27 10.5 27 12.9852814 24.9852814 15 22.5 15zM22.5 13C23.8807119 13 25 11.8807119 25 10.5 25 9.11928813 23.8807119 8 22.5 8 21.1192881 8 20 9.11928813 20 10.5 20 11.8807119 21.1192881 13 22.5 13zM20.5 21.9516602C20.5 19.4663788 18.4852814 17 16 17 13.5147186 17 11.5 19.4663788 11.5 21.9516602L13.5 21.9516602C13.5 20.5709483 14.6192881 19 16 19 17.3807119 19 18.5 20.5709483 18.5 21.9516602L20.5 21.9516602zM9.5 15C7.01471863 15 5 12.9852814 5 10.5 5 8.01471863 7.01471863 6 9.5 6 11.9852814 6 14 8.01471863 14 10.5 14 12.9852814 11.9852814 15 9.5 15zM9.5 13C10.8807119 13 12 11.8807119 12 10.5 12 9.11928813 10.8807119 8 9.5 8 8.11928813 8 7 9.11928813 7 10.5 7 11.8807119 8.11928813 13 9.5 13z"/>
  </g>
</svg>
