<svg xmlns="http://www.w3.org/2000/svg" width="60" height="58" viewBox="0 0 60 58">
  <g fill="none" transform="translate(13 12)">
    <path fill="#FFFFFF" d="M16.8969697,34.2794118 C15.0424242,34.2794118 13.2909091,33.8676471 11.6424242,33.25 C9.99393939,32.5294118 8.55151515,31.6029412 7.41818182,30.2647059 C6.18181818,29.0294118 5.25454545,27.5882353 4.63636364,25.9411765 C4.43030303,25.3235294 4.22424242,24.7058824 4.01818182,23.9852941 L3.91515152,23.9852941 L3.81212121,22.9558824 C2.57575758,22.4411765 1.64848485,21.2058824 1.33939394,20.0735294 C0.927272727,18.6323529 0.515151515,16.4705882 0.412121212,14.5147059 C0.412121212,12.9705882 1.23636364,11.5294118 2.67878788,10.9117647 C3.60606061,10.5 4.94545455,10.0882353 6.49090909,9.88235294 C7.52121212,7.72058824 8.65454545,5.76470588 9.89090909,4.32352941 C12.0545455,1.75 14.4242424,0.411764706 16.8969697,0.411764706 C19.369697,0.411764706 21.7393939,1.75 23.9030303,4.32352941 C25.1393939,5.76470588 26.2727273,7.61764706 27.2,9.88235294 C28.7454545,10.1911765 30.0848485,10.5 31.1151515,10.9117647 C32.5575758,11.5294118 33.3818182,12.9705882 33.3818182,14.5147059 C33.2787879,16.7794118 32.7636364,19.25 32.4545455,20.1764706 C32.1454545,21.4117647 31.2181818,22.6470588 29.9818182,23.0588235 L29.8787879,24.0882353 L29.7757576,24.0882353 C29.6727273,24.7058824 29.4666667,25.4264706 29.1575758,26.0441176 C28.5393939,27.6911765 27.6121212,29.1323529 26.3757576,30.3676471 C25.1393939,31.6029412 23.6969697,32.6323529 22.1515152,33.3529412 C20.5030303,33.9705882 18.7515152,34.2794118 16.8969697,34.2794118 Z"/>
    <path fill="#FCFBFA" d="M16.7939394,2.88235294 C22.6666667,2.88235294 27.4060606,15.4411765 27.4060606,21.3088235 C27.4060606,27.1764706 22.6666667,31.9117647 16.7939394,31.9117647 C10.9212121,31.9117647 6.18181818,27.1764706 6.18181818,21.3088235 C6.18181818,15.4411765 10.9212121,2.88235294 16.7939394,2.88235294 Z"/>
    <path fill="#252526" d="M30.2909091 12.9705882L25.9636364 14.5147059C25.9636364 14.5147059 26.5818182 16.5735294 26.6848485 16.5735294 26.6848485 16.5735294 31.0121212 16.0588235 31.0121212 16.0588235L30.2909091 12.9705882zM3.4 12.9705882L7.72727273 14.5147059C7.72727273 14.5147059 7.10909091 16.5735294 7.00606061 16.5735294 7.00606061 16.5735294 2.67878788 16.0588235 2.67878788 16.0588235L3.4 12.9705882z"/>
    <path fill="#E0E0E0" d="M12.3636364 12.6617647C13.4969697 12.6617647 13.7030303 13.5882353 13.7030303 13.7941176 13.8060606 14.4117647 13.9090909 15.2352941 14.0121212 16.0588235 14.0121212 16.2647059 14.0121212 16.4705882 13.9090909 16.6764706 13.8060606 16.1617647 13.8060606 15.6470588 13.7030303 15.1323529 13.7030303 14.9264706 13.3939394 14 12.3636364 14 11.7454545 14 9.58181818 14.1029412 7.52121212 14.4117647 7.62424242 13.8970588 7.83030303 13.4852941 8.03636364 12.9705882 9.89090909 12.6617647 11.7454545 12.5588235 12.3636364 12.6617647zM27.4060606 20.7941176C23.5939394 20.5882353 20.2969697 19.3529412 19.5757576 18.9411765 18.9575758 18.6323529 18.2363636 18.1176471 18.030303 16.6764706 17.9272727 18.3235294 18.2363636 19.7647059 19.6787879 20.4852941 19.7818182 20.5882353 22.6666667 21.9264706 27.3030303 22.2352941 27.3030303 21.9264706 27.3030303 21.6176471 27.3030303 21.3088235 27.4060606 21.1029412 27.4060606 20.8970588 27.4060606 20.7941176zM6.28484848 20.7941176C10.0969697 20.5882353 13.3939394 19.3529412 14.1151515 18.9411765 14.7333333 18.6323529 15.4545455 18.1176471 15.6606061 16.6764706 15.7636364 18.3235294 15.4545455 19.7647059 14.0121212 20.4852941 13.9090909 20.5882353 11.0242424 21.9264706 6.38787879 22.2352941 6.38787879 21.9264706 6.38787879 21.6176471 6.38787879 21.3088235 6.28484848 21.1029412 6.28484848 20.8970588 6.28484848 20.7941176zM21.2242424 12.6617647C20.0909091 12.6617647 19.8848485 13.5882353 19.8848485 13.7941176 19.7818182 14.4117647 19.6787879 15.2352941 19.5757576 16.0588235 19.5757576 16.2647059 19.5757576 16.4705882 19.6787879 16.6764706 19.7818182 16.1617647 19.7818182 15.6470588 19.8848485 15.1323529 19.8848485 14.9264706 20.1939394 14 21.2242424 14 21.8424242 14 24.0060606 14.1029412 26.0666667 14.4117647 25.9636364 13.8970588 25.7575758 13.4852941 25.5515152 12.9705882 23.6969697 12.6617647 21.8424242 12.5588235 21.2242424 12.6617647z"/>
    <path fill="#56555C" d="M7.52121212 11.4264706C8.55151515 8.95588235 9.78787879 6.69117647 11.1272727 5.14705882 12.8787879 2.98529412 14.8363636 1.85294118 16.7939394 1.85294118 18.7515152 1.85294118 20.6060606 2.98529412 22.4606061 5.14705882 23.8 6.79411765 25.0363636 8.95588235 26.0666667 11.4264706L26.0666667 11.5294118 25.9636364 11.5294118C25.5515152 11.5294118 25.3454545 11.4264706 24.9333333 11.4264706L24.9333333 11.4264706 24.9333333 11.4264706C23.8 8.64705882 21.7393939 5.14705882 19.1636364 3.60294118 18.3393939 3.19117647 17.6181818 2.88235294 16.7939394 2.88235294 15.969697 2.88235294 15.2484848 3.08823529 14.4242424 3.60294118 11.8484848 5.04411765 9.89090909 8.64705882 8.65454545 11.4264706L8.65454545 11.4264706 8.65454545 11.4264706C8.24242424 11.4264706 8.03636364 11.5294118 7.62424242 11.5294118L7.52121212 11.5294118 7.52121212 11.4264706zM27.5090909 19.4558824C27.2 19.4558824 26.8909091 19.4558824 26.6848485 19.4558824L26.5818182 19.4558824 26.5818182 19.3529412C26.3757576 17.2941176 25.7575758 15.0294118 24.9333333 12.7647059L24.830303 12.5588235 25.0363636 12.5588235C25.3454545 12.5588235 25.6545455 12.6617647 25.9636364 12.6617647L26.0666667 12.6617647 26.0666667 12.7647059C26.7878788 15.0294118 27.4060606 17.3970588 27.6121212 19.3529412L27.6121212 19.4558824 27.5090909 19.4558824z"/>
    <path fill="#252526" d="M26.5818182,14.4117647 C26.3757576,13.8970588 26.2727273,13.3823529 26.0666667,12.8676471 L26.0666667,12.7647059 L25.9636364,12.7647059 C25.6545455,12.6617647 25.3454545,12.6617647 25.0363636,12.6617647 L24.830303,12.6617647 L24.9333333,12.8676471 C25.1393939,13.3823529 25.2424242,13.8970588 25.4484848,14.4117647 C25.9636364,14.3088235 26.2727273,14.3088235 26.5818182,14.4117647 Z"/>
    <path fill="#56555C" d="M6.07878788,19.25 C6.28484848,17.2941176 6.9030303,14.9264706 7.62424242,12.6617647 L7.62424242,12.5588235 L7.72727273,12.5588235 C8.03636364,12.5588235 8.34545455,12.4558824 8.65454545,12.4558824 L8.86060606,12.4558824 L8.75757576,12.6617647 C7.93333333,14.9264706 7.41818182,17.2941176 7.10909091,19.25 L7.10909091,19.3529412 L7.00606061,19.3529412 C6.6969697,19.3529412 6.38787879,19.3529412 6.18181818,19.3529412 L6.07878788,19.3529412 L6.07878788,19.25 Z"/>
    <path fill="#252526" d="M7.72727273,12.6617647 L7.72727273,12.6617647 L7.72727273,12.6617647 C7.41818182,13.2794118 7.31515152,13.7941176 7.10909091,14.3088235 C7.62424242,14.2058824 7.83030303,14.2058824 8.24242424,14.2058824 C8.44848485,13.6911765 8.55151515,13.1764706 8.75757576,12.6617647 L8.86060606,12.4558824 L8.65454545,12.4558824 C8.34545455,12.5588235 8.03636364,12.6617647 7.72727273,12.6617647 Z"/>
    <path fill="#56555C" d="M16.7939394,32.8382353 C15.2484848,32.8382353 13.7030303,32.5294118 12.2606061,31.9117647 C10.8181818,31.2941176 9.58181818,30.4705882 8.55151515,29.3382353 C7.52121212,28.2058824 6.6969697,26.9705882 6.07878788,25.5294118 C5.46060606,24.0882353 5.25454545,22.4411765 5.25454545,20.7941176 L5.25454545,20.6911765 L5.35757576,20.6911765 C5.76969697,20.6911765 5.97575758,20.6911765 6.28484848,20.6911765 L6.38787879,20.6911765 L6.38787879,20.7941176 C6.28484848,22.3382353 6.59393939,23.6764706 7.10909091,25.1176471 C7.62424242,26.4558824 8.34545455,27.5882353 9.27272727,28.6176471 C10.2,29.6470588 11.4363636,30.4705882 12.6727273,30.9852941 C14.0121212,31.6029412 15.3515152,31.8088235 16.7939394,31.8088235 C18.2363636,31.8088235 19.6787879,31.5 20.9151515,30.9852941 C22.1515152,30.4705882 23.3878788,29.6470588 24.3151515,28.6176471 C25.2424242,27.5882353 26.0666667,26.4558824 26.4787879,25.1176471 C26.9939394,23.7794118 27.2,22.3382353 27.2,20.7941176 L27.2,20.6911765 L27.3030303,20.6911765 C27.7151515,20.6911765 27.9212121,20.6911765 28.230303,20.6911765 L28.3333333,20.6911765 L28.3333333,20.7941176 C28.4363636,22.4411765 28.1272727,23.9852941 27.5090909,25.5294118 C26.9939394,26.9705882 26.169697,28.2058824 25.0363636,29.3382353 C24.0060606,30.4705882 22.6666667,31.2941176 21.3272727,31.9117647 C19.9878788,32.4264706 18.4424242,32.8382353 16.7939394,32.8382353 Z"/>
    <path fill="#252526" d="M6.38787879 22.1323529C6.38787879 21.7205882 6.38787879 21.2058824 6.38787879 20.7941176L6.38787879 20.6911765 6.28484848 20.6911765C5.97575758 20.6911765 5.76969697 20.6911765 5.35757576 20.6911765L5.25454545 20.6911765 5.25454545 20.7941176C5.25454545 21.3088235 5.25454545 21.7205882 5.25454545 22.1323529L5.25454545 22.1323529C5.66666667 22.1323529 6.07878788 22.1323529 6.38787879 22.1323529L6.38787879 22.1323529zM28.3333333 20.6911765L28.3333333 20.6911765C28.0242424 20.6911765 27.7151515 20.6911765 27.4060606 20.6911765L27.3030303 20.6911765 27.3030303 20.7941176C27.3030303 21.3088235 27.3030303 21.7205882 27.3030303 22.1323529L28.3333333 22.1323529C28.3333333 21.7205882 28.3333333 21.2058824 28.3333333 20.6911765L28.3333333 20.6911765z"/>
    <path fill="#252526" d="M28.9515152,21.6176471 C26.5818182,21.6176471 24.4181818,21 22.3575758,20.4852941 C21.3272727,20.1764706 20.4,19.6617647 19.6787879,19.3529412 L19.6787879,19.25 C17.9272727,18.4264706 17.8242424,16.5735294 17.9272727,15.0294118 C17.9272727,14.6176471 17.8242424,14.1029412 17.4121212,13.7941176 C17.2060606,13.6911765 17,13.5882353 16.7939394,13.5882353 C16.5878788,13.5882353 16.2787879,13.6911765 16.1757576,13.7941176 C15.7636364,14.1029412 15.6606061,14.6176471 15.6606061,15.0294118 C15.8666667,16.5735294 15.7636364,18.3235294 13.9090909,19.1470588 L13.9090909,19.1470588 C13.1878788,19.4558824 12.2606061,20.1764706 11.230303,20.4852941 C9.16969697,21 7.00606061,21.6176471 4.63636364,21.6176471 L4.63636364,21.6176471 C3.70909091,21.6176471 2.88484848,20.6911765 2.67878788,19.7647059 C2.36969697,18.4264706 1.85454545,16.2647059 1.85454545,14.4117647 C1.85454545,13.6911765 2.26666667,12.8676471 2.98787879,12.5588235 C5.46060606,11.4264706 10.5090909,11.0147059 12.6727273,11.0147059 C13.4969697,11.0147059 14.1151515,11.3235294 14.630303,11.8382353 C15.3515152,11.5294118 16.0727273,11.3235294 16.7939394,11.3235294 C17.5151515,11.3235294 18.2363636,11.5294118 18.9575758,11.8382353 C19.369697,11.4264706 19.9878788,11.0147059 20.9151515,11.0147059 C22.1515152,11.0147059 27.7151515,11.2205882 30.6,12.4558824 C31.3212121,12.7647059 31.7333333,13.4852941 31.7333333,14.2058824 C31.630303,16.0588235 31.2181818,18.4264706 30.9090909,19.7647059 C30.7030303,20.6911765 29.8787879,21.6176471 28.9515152,21.6176471 L28.9515152,21.6176471 Z M21.2242424,12.6617647 C20.1939394,12.6617647 19.9878788,13.5882353 19.8848485,13.6911765 C19.7818182,14.2058824 19.6787879,15.0294118 19.5757576,15.9558824 C19.5757576,16.7794118 19.8848485,17.3970588 20.5030303,17.7058824 C22.769697,18.7352941 25.4484848,19.25 28.5393939,19.25 C28.7454545,19.25 28.9515152,19.0441176 29.0545455,18.8382353 C29.3636364,17.7058824 29.7757576,15.9558824 29.7757576,14.3088235 C29.7757576,14.2058824 29.6727273,14 29.569697,14 C27.6121212,12.9705882 22.9757576,12.6617647 21.2242424,12.6617647 Z M3.91515152,14 C3.81212121,14.1029412 3.70909091,14.2058824 3.70909091,14.3088235 C3.70909091,15.9558824 4.12121212,17.7058824 4.43030303,18.8382353 C4.53333333,19.0441176 4.73939394,19.25 4.94545455,19.25 C8.13939394,19.25 10.7151515,18.7352941 12.9818182,17.7058824 C13.6,17.3970588 13.9090909,16.7794118 13.9090909,15.9558824 C13.9090909,15.2352941 13.8060606,14.5147059 13.6,13.6911765 C13.6,13.4852941 13.3939394,12.6617647 12.2606061,12.6617647 C11.4363636,12.6617647 6.38787879,12.8676471 3.91515152,14 Z"/>
  </g>
</svg>
