<svg xmlns="http://www.w3.org/2000/svg" width="25" height="22" viewBox="0 0 25 22">
  <path fill="#FFFFFF" fill-rule="evenodd" d="M1,7.23717479 L1,14.7628301 L6.01710351,14.7628301 L12.2884829,21.0342095 L12.2884829,0.965795399 L6.01710351,7.23717479 L1,7.23717479 Z M17.9327244,11.0000024 C17.9327244,8.77993349 16.6533623,6.87343482 14.7970347,5.94527037 L14.7970347,16.042192 C16.6533623,15.1265712 17.9327244,13.2200712 17.9327244,11.0000024 Z M14.7970347,2.98517659e-06 L14.7970347,2.58381123 C18.4218911,3.66248865 21.0684141,7.02394779 21.0684141,11.0000024 C21.0684141,14.976057 18.4218911,18.3375167 14.7970347,19.4161923 L14.7970347,22 C19.8266812,20.8586092 23.5769658,16.3683016 23.5769658,10.9999999 C23.5769658,5.63169841 19.8266812,1.14139145 14.7970347,0 L14.7970347,2.98517659e-06 Z"/>
</svg>
