<svg xmlns="http://www.w3.org/2000/svg" width="25" height="22" viewBox="0 0 25 22">
  <g fill="#FFFFFF" fill-rule="evenodd">
    <path d="M7.73382582,5.52045249 L12.2884829,10.0751096 L12.2884829,21.0342095 L6.01710351,14.7628301 L1,14.7628301 L1,7.23717479 L6.01710351,7.23717479 L7.73382582,5.52045249 Z M9.52045249,3.73382582 L12.2884829,0.965795399 L12.2884829,6.50185624 L9.52045249,3.73382582 Z M17.8354642,12.0488376 C17.8993163,11.7093195 17.9327244,11.3587551 17.9327244,11.0000024 C17.9327244,8.77993349 16.6533623,6.87343482 14.7970347,5.94527037 L14.7970347,9.01040799 L17.8354642,12.0488376 Z M16.7124216,14.4990482 C16.1979817,15.1445277 15.5442496,15.6736334 14.7970347,16.042192 L14.7970347,12.5836613 L16.7124216,14.4990482 Z M22.1966766,16.41005 C23.0767476,14.8040517 23.5769658,12.9605799 23.5769658,10.9999999 C23.5769658,5.63169841 19.8266812,1.14139145 14.7970347,0 L14.7970347,2.98517659e-06 L14.7970347,2.58381123 C18.4218911,3.66248865 21.0684141,7.02394779 21.0684141,11.0000024 C21.0684141,12.2588731 20.8031165,13.4561344 20.3254673,14.5388406 L22.1966766,16.41005 Z M20.7172361,18.5038627 C19.1820479,20.2240662 17.1267903,21.4713025 14.7970347,22 L14.7970347,19.4161923 C16.4269046,18.9311797 17.8589813,17.9846487 18.9416187,16.7282454 L20.7172361,18.5038627 Z"/>
    <polygon points=".616 1.884 20.616 21.884 22.384 20.116 2.384 .116"/>
  </g>
</svg>
