<svg xmlns="http://www.w3.org/2000/svg" width="28" height="20" viewBox="0 0 28 20">
  <g fill="#4786FF" fill-rule="evenodd">
    <rect width="26" height="17" x="1" y="2" opacity=".3"/>
    <path fill-rule="nonzero" d="M2,3 L2,17 C2,17.5522847 2.44771525,18 3,18 L25,18 C25.5522847,18 26,17.5522847 26,17 L26,3 C26,2.44771525 25.5522847,2 25,2 L3,2 C2.44771525,2 2,2.44771525 2,3 Z M2,0 L26,0 C27.1045695,-2.02906125e-16 28,0.8954305 28,2 L28,18 C28,19.1045695 27.1045695,20 26,20 L2,20 C0.8954305,20 1.3527075e-16,19.1045695 0,18 L0,2 C-1.3527075e-16,0.8954305 0.8954305,2.02906125e-16 2,0 Z"/>
    <path d="M9.5,4 L9.5,6.2 L6.2,6.2 L6.2,9.5 L4,9.5 L4,4 L9.5,4 Z M15,9 L23,9 C23.5522847,9 24,9.44771525 24,10 L24,15 C24,15.5522847 23.5522847,16 23,16 L15,16 C14.4477153,16 14,15.5522847 14,15 L14,10 C14,9.44771525 14.4477153,9 15,9 Z"/>
  </g>
</svg>
