<svg xmlns="http://www.w3.org/2000/svg" width="28" height="20" viewBox="0 0 28 20">
  <g fill="#FFFFFF" fill-rule="evenodd">
    <path fill-rule="nonzero" d="M2,3 L2,17 C2,17.5522847 2.44771525,18 3,18 L25,18 C25.5522847,18 26,17.5522847 26,17 L26,3 C26,2.44771525 25.5522847,2 25,2 L3,2 C2.44771525,2 2,2.44771525 2,3 Z M2,0 L26,0 C27.1045695,-2.02906125e-16 28,0.8954305 28,2 L28,18 C28,19.1045695 27.1045695,20 26,20 L2,20 C0.8954305,20 1.3527075e-16,19.1045695 0,18 L0,2 C-1.3527075e-16,0.8954305 0.8954305,2.02906125e-16 2,0 Z"/>
    <polygon points="10.5 5 5 5 5 10.5 7.2 10.5 7.2 7.2 10.5 7.2" transform="rotate(180 7.75 7.75)"/>
    <rect width="10" height="7" x="14" y="9" rx="1"/>
  </g>
</svg>
