<svg xmlns="http://www.w3.org/2000/svg" width="130" height="130" viewBox="0 0 130 130">
  <g fill="#6799FA" fill-rule="evenodd">
    <path d="M65,128 C30.2483871,128 2,99.7516129 2,65 C2,30.2483871 30.2483871,2 65,2 C99.7516129,2 128,30.2483871 128,65 C128,99.7516129 99.7516129,128 65,128 Z" opacity=".3"/>
    <path d="M65,0 C29.1,0 0,29.1 0,65 C0,100.9 29.1,130 65,130 C100.9,130 130,100.9 130,65 C130,29.1 100.9,0 65,0 Z M65,128 C30.2483871,128 2,99.7516129 2,65 C2,30.2483871 30.2483871,2 65,2 C99.7516129,2 128,30.2483871 128,65 C128,99.7516129 99.7516129,128 65,128 Z"/>
    <path d="M58.072738,83.5789341 L84.8743219,66.5459738 L84.8743219,66.5459738 C85.8065604,65.9535169 86.0820079,64.7175071 85.4895511,63.7852686 C85.3321488,63.5375941 85.1221711,63.3275924 84.8745146,63.1701619 L58.0729307,46.132906 L58.0729307,46.132906 C57.1407598,45.5403427 55.9047186,45.8156491 55.3121553,46.74782 C55.1082784,47.0685421 55,47.4407133 55,47.8207507 L55,81.8909669 L55,81.8909669 C55,82.9955364 55.8954305,83.8909669 57,83.8909669 C57.3799598,83.8909669 57.7520582,83.7827327 58.072738,83.5789341 Z"/>
  </g>
</svg>
