<svg xmlns="http://www.w3.org/2000/svg" width="28" height="22" viewBox="0 0 28 22">
  <path fill="#FFFFFF" fill-rule="evenodd" d="M22.3714286,6.71428571 L1.42857143,6.71428571 L1.42857143,6.71428571 C0.639593215,6.71428571 -9.66219644e-17,7.35387893 0,8.14285714 L0,8.14285714 L0,8.14285714 C9.66219644e-17,8.93183536 0.639593215,9.57142857 1.42857143,9.57142857 L22.3714286,9.57142857 L22.3714286,9.57142857 C23.1604068,9.57142857 23.8,8.93183536 23.8,8.14285714 L23.8,8.14285714 L23.8,8.14285714 C23.8,7.35387893 23.1604068,6.71428571 22.3714286,6.71428571 Z M22.3714286,1 L1.42857143,1 L1.42857143,1 C0.639593215,1 -9.66219644e-17,1.63959321 0,2.42857143 L0,2.42857143 L0,2.42857143 C9.66219644e-17,3.21754964 0.639593215,3.85714286 1.42857143,3.85714286 L22.3714286,3.85714286 L22.3714286,3.85714286 C23.1604068,3.85714286 23.8,3.21754964 23.8,2.42857143 L23.8,2.42857143 L23.8,2.42857143 C23.8,1.63959321 23.1604068,1 22.3714286,1 Z M1.42857143,15.2857143 L16.7714286,15.2857143 L16.7714286,15.2857143 C17.5604068,15.2857143 18.2,14.6461211 18.2,13.8571429 L18.2,13.8571429 L18.2,13.8571429 C18.2,13.0681646 17.5604068,12.4285714 16.7714286,12.4285714 L1.42857143,12.4285714 L1.42857143,12.4285714 C0.639593215,12.4285714 -9.66219644e-17,13.0681646 0,13.8571429 L0,13.8571429 L0,13.8571429 C9.66219644e-17,14.6461211 0.639593215,15.2857143 1.42857143,15.2857143 Z M21,13.3209625 L21,20.1076089 L21,20.1076089 C21,20.3837513 21.2238576,20.6076089 21.5,20.6076089 C21.5921425,20.6076089 21.6824931,20.5821471 21.7610769,20.5340345 L27.3035048,17.1407114 L27.3035048,17.1407114 C27.5390132,16.9965226 27.6130423,16.6887172 27.4688535,16.4532088 C27.4275815,16.3857979 27.3709157,16.3291321 27.3035048,16.2878601 L21.7610769,12.8945369 L21.7610769,12.8945369 C21.5255685,12.7503481 21.2177632,12.8243772 21.0735743,13.0598856 C21.0254618,13.1384695 21,13.22882 21,13.3209625 Z"/>
</svg>
