<svg xmlns="http://www.w3.org/2000/svg" width="21" height="22" viewBox="0 0 21 22">
  <path fill="#699CFF" fill-rule="evenodd" d="M1.27309093,21.0664 L1.27309093,21.0664 C1.13587736,21.1670233 0.970154667,21.221276 0.8,21.221276 C0.3581722,21.221276 -2.49940466e-15,20.8631038 -2.55351296e-15,20.421276 L0,20.421276 L2.22044605e-16,1.57872401 C2.01206668e-16,1.40856935 0.0542527161,1.24284666 0.154876003,1.10563308 C0.41615691,0.749340937 0.916798786,0.67231911 1.27309093,0.933600016 L1.27309093,0.933600016 L14.1202855,10.354876 C14.1860651,10.4031144 14.2440801,10.4611295 14.2923185,10.5269091 C14.5535994,10.8832012 14.4765776,11.3838431 14.1202855,11.645124 L14.1202855,11.645124 L1.27309093,21.0664 Z M19.5,0.5 C20.3284271,0.5 21,1.17157288 21,2 L21,20 C21,20.8284271 20.3284271,21.5 19.5,21.5 C18.6715729,21.5 18,20.8284271 18,20 L18,2 L18,2 C18,1.17157288 18.6715729,0.5 19.5,0.5 Z" transform="matrix(-1 0 0 1 21 0)"/>
</svg>
