<svg xmlns="http://www.w3.org/2000/svg" width="70" height="70" viewBox="0 0 70 70">
  <g fill="#FFFFFF" fill-rule="evenodd">
    <path d="M35,0 C15.7,0 0,15.7 0,35 C0,54.3 15.7,70 35,70 C54.3,70 70,54.3 70,35 C70,15.7 54.3,0 35,0 Z M35,68 C16.746875,68 2,53.253125 2,35 C2,16.746875 16.746875,2 35,2 C53.253125,2 68,16.746875 68,35 C68,53.253125 53.253125,68 35,68 Z" opacity=".6"/>
    <path d="M28,17.3 C28,17.2 28,17.1 28,17 L27.9,17 C27.7,16.4 27.1,16 26.5,16 C25.9,16 25.3,16.4 25.1,17 L25,17 C25,23.1 20.1,28 14,28 C7.9,28 3,23.1 3,17 C3,10.9 7.9,6 14,6 C14.7,6 15.4,6.1 16,6.2 L16,9.5 C16,9.7 16.1,9.8 16.3,9.9 C16.4,9.9 16.5,10 16.6,10 C16.7,10 16.8,10 16.9,9.9 L24.7,5.4 C24.9,5.3 24.9,5.2 24.9,5 C24.9,4.8 24.8,4.7 24.7,4.6 L16.9,0.1 C16.7,0 16.5,0 16.3,0.1 C16.1,0.2 16,0.3 16,0.5 L16,3.2 C15.3,3.1 14.7,3 14,3 C6.3,3 -7.10542736e-15,9.3 -7.10542736e-15,17 C-7.10542736e-15,24.7 6.3,31 14,31 C21.4,31 27.5,25.2 28,17.8 C28,17.7 28,17.6 28,17.5 C28,17.4 28,17.4 28,17.3 Z" transform="translate(21 18)"/>
  </g>
</svg>
