<svg xmlns="http://www.w3.org/2000/svg" width="20" height="22" viewBox="0 0 20 22">
  <path fill="#FFFFFF" fill-rule="evenodd" d="M19,11.6541566 C19,11.5895884 19,11.5250202 19,11.460452 L18.9357143,11.460452 C18.8071429,11.0730428 18.4214286,10.81477 18.0357143,10.81477 C17.65,10.81477 17.2642857,11.0730428 17.1357143,11.460452 L17.0714286,11.460452 C17.0714286,15.3991122 13.9214286,18.562954 10,18.562954 C6.07857143,18.562954 2.92857143,15.3991122 2.92857143,11.460452 C2.92857143,7.52179177 6.07857143,4.35794996 10,4.35794996 C10.45,4.35794996 10.9,4.42251816 11.2857143,4.48708636 L11.2857143,6.61783697 C11.2857143,6.74697337 11.35,6.81154157 11.4785714,6.87610977 C11.5428571,6.87610977 11.6071429,6.94067797 11.6714286,6.94067797 C11.7357143,6.94067797 11.8,6.94067797 11.8642857,6.87610977 L16.8785714,3.97054076 C17.0071429,3.90597256 17.0071429,3.84140436 17.0071429,3.71226796 C17.0071429,3.58313156 16.9428571,3.51856336 16.8785714,3.45399516 L11.8642857,0.54842615 C11.7357143,0.48385795 11.6071429,0.48385795 11.4785714,0.54842615 C11.35,0.61299435 11.2857143,0.67756255 11.2857143,0.806698951 L11.2857143,2.55004036 C10.8357143,2.48547215 10.45,2.42090395 10,2.42090395 C5.05,2.42090395 1,6.48870056 1,11.460452 C1,16.4322034 5.05,20.5 10,20.5 C14.7571429,20.5 18.6785714,16.7550444 19,11.9769976 C19,11.9124294 19,11.8478612 19,11.783293 C19,11.7187248 19,11.7187248 19,11.6541566 Z"/>
</svg>
