<svg xmlns="http://www.w3.org/2000/svg" width="22" height="22" viewBox="0 0 22 22">
  <path fill="#FFFFFF" fill-rule="evenodd" d="M18.6407055,11.9800006 C18.6818286,11.6600009 18.7126689,11.3400001 18.7126689,11.000001 C18.7126689,10.6600018 18.6818266,10.340001 18.6407055,10.0200013 L20.8098983,8.37000157 C21.0052289,8.22000194 21.0566307,7.95000146 20.9332655,7.73000116 L18.8771592,4.27000078 C18.753792,4.05000097 18.4762191,3.97000056 18.2500461,4.05000097 L15.690194,5.05000107 C15.155606,4.65000094 14.5798967,4.32000097 13.9527837,4.07000095 L13.5621234,1.42000059 C13.5312811,1.18000008 13.3153899,1 13.0583766,1 L8.94616404,1 C8.68915075,1 8.47325955,1.18000008 8.44241823,1.42000011 L8.05175792,4.07000048 C7.42464585,4.3200005 6.84893566,4.66000069 6.31434804,5.0500006 L3.75449545,4.0500005 C3.51804322,3.96000033 3.25074965,4.0500005 3.1273829,4.27000031 L1.07127661,7.73000021 C0.937629589,7.9500005 0.999312963,8.22000003 1.19464288,8.37000062 L3.36383514,10.0200013 C3.32271306,10.340001 3.29187125,10.670001 3.29187125,11.000001 C3.29187125,11.3300009 3.32271306,11.6600009 3.36383514,11.9800006 L1.19464311,13.6300004 C0.999312963,13.78 0.947910357,14.0500005 1.07127661,14.2700008 L3.1273829,17.7300012 C3.25074916,17.9500005 3.52832349,18.0300004 3.75449545,17.9500005 L6.31434756,16.9500004 C6.84893517,17.35 7.42464487,17.68 8.05175694,17.93 L8.44241725,20.58 C8.47325857,20.8199997 8.68914977,21 8.94616305,21 L13.0583756,21 C13.3153889,21 13.53128,20.8199997 13.5621214,20.58 L13.9527817,17.93 C14.5798937,17.68 15.155604,17.3399998 15.6901921,16.9500004 L18.2500442,17.9500005 C18.4864959,18.0400007 18.75379,17.9500005 18.8771572,17.7300012 L20.9332635,14.2700008 C21.0566307,14.0500005 21.0052269,13.780001 20.8098963,13.6300004 L18.6407034,11.9800006 L18.6407055,11.9800006 Z M11.0022703,14.5000014 C9.01812735,14.5000014 7.40408432,12.9300015 7.40408432,11.000001 C7.40408432,9.07000041 9.01812735,7.50000065 11.0022703,7.50000065 C12.9864132,7.50000065 14.6004563,9.07000041 14.6004563,11.000001 C14.6004563,12.9300015 12.9864132,14.5000014 11.0022703,14.5000014 Z"/>
</svg>
